# xmcd
#
# Track frame offsets:
# 150
# 15409
# 31197
# 49422
# 64465
# 80125
# 95154
# 113500
# 126690
# 143735
# 158890
# 176047
# 190862
# 205095
#
# Disc length: 2915 seconds
#
#
# Revision: 2
# Processed by: cddbd v1.5.2PL0 Copyright (c) Steve Scherf et al.
# Submitted via: FreeRIP 2.96 
#
DISCID=ca0b610e
DTITLE=Adalberto e Adriano - Ninguém Pode Mudar um Caipira
DYEAR=1998
DGENRE=Country
TTITLE0=Silhueta
TTITLE1=Eu Não Contava com Isso
TTITLE2=Ternura
TTITLE3=Vem Comigo
TTITLE4=Você Só Precisa Dizer que me Quer
TTITLE5=Deixa a Chuva Derramar
TTITLE6=Ainda Amo Você
TTITLE7=O Gosto do Meu Amor
TTITLE8=Dois Estranhos
TTITLE9=Doce Tentação
TTITLE10=Ninguém Pode Mudar um Caipira
TTITLE11=Sua Mulher me Ama
TTITLE12=Atitude
TTITLE13=Peruca de Touro
EXTD=YEAR: 1998 ID3G:   2
EXTT0=
EXTT1=
EXTT2=
EXTT3=
EXTT4=
EXTT5=
EXTT6=
EXTT7=
EXTT8=
EXTT9=
EXTT10=
EXTT11=
EXTT12=
EXTT13=
PLAYORDER=
